%TF.GenerationSoftware,KiCad,Pcbnew,7.0.2*%
%TF.CreationDate,2023-07-05T23:24:43+08:00*%
%TF.ProjectId,tps61088,74707336-3130-4383-982e-6b696361645f,rev?*%
%TF.SameCoordinates,Original*%
%TF.FileFunction,Legend,Bot*%
%TF.FilePolarity,Positive*%
%FSLAX46Y46*%
G04 Gerber Fmt 4.6, Leading zero omitted, Abs format (unit mm)*
G04 Created by KiCad (PCBNEW 7.0.2) date 2023-07-05 23:24:43*
%MOMM*%
%LPD*%
G01*
G04 APERTURE LIST*
G04 Aperture macros list*
%AMRoundRect*
0 Rectangle with rounded corners*
0 $1 Rounding radius*
0 $2 $3 $4 $5 $6 $7 $8 $9 X,Y pos of 4 corners*
0 Add a 4 corners polygon primitive as box body*
4,1,4,$2,$3,$4,$5,$6,$7,$8,$9,$2,$3,0*
0 Add four circle primitives for the rounded corners*
1,1,$1+$1,$2,$3*
1,1,$1+$1,$4,$5*
1,1,$1+$1,$6,$7*
1,1,$1+$1,$8,$9*
0 Add four rect primitives between the rounded corners*
20,1,$1+$1,$2,$3,$4,$5,0*
20,1,$1+$1,$4,$5,$6,$7,0*
20,1,$1+$1,$6,$7,$8,$9,0*
20,1,$1+$1,$8,$9,$2,$3,0*%
G04 Aperture macros list end*
%ADD10C,0.120000*%
%ADD11O,3.500000X2.200000*%
%ADD12R,2.500000X1.500000*%
%ADD13O,2.500000X1.500000*%
%ADD14R,1.600000X1.600000*%
%ADD15C,1.600000*%
%ADD16R,1.700000X1.700000*%
%ADD17O,1.700000X1.700000*%
%ADD18RoundRect,0.249999X0.790001X1.550001X-0.790001X1.550001X-0.790001X-1.550001X0.790001X-1.550001X0*%
%ADD19O,2.080000X3.600000*%
%ADD20O,2.200000X3.500000*%
%ADD21R,1.500000X2.500000*%
%ADD22O,1.500000X2.500000*%
%ADD23RoundRect,0.249999X-0.790001X-1.550001X0.790001X-1.550001X0.790001X1.550001X-0.790001X1.550001X0*%
%ADD24C,0.650000*%
%ADD25O,1.000000X2.100000*%
%ADD26O,1.000000X1.800000*%
%ADD27RoundRect,0.249999X1.550001X-0.790001X1.550001X0.790001X-1.550001X0.790001X-1.550001X-0.790001X0*%
%ADD28O,3.600000X2.080000*%
%ADD29RoundRect,0.250000X0.312500X0.625000X-0.312500X0.625000X-0.312500X-0.625000X0.312500X-0.625000X0*%
%ADD30RoundRect,0.250000X-0.312500X-0.625000X0.312500X-0.625000X0.312500X0.625000X-0.312500X0.625000X0*%
G04 APERTURE END LIST*
D10*
%TO.C,R3*%
X113764564Y-81160000D02*
X112310436Y-81160000D01*
X113764564Y-79340000D02*
X112310436Y-79340000D01*
%TO.C,R16*%
X113764564Y-77160000D02*
X112310436Y-77160000D01*
X113764564Y-75340000D02*
X112310436Y-75340000D01*
%TO.C,R12*%
X113764564Y-72910000D02*
X112310436Y-72910000D01*
X113764564Y-71090000D02*
X112310436Y-71090000D01*
%TO.C,R8*%
X112310436Y-83340000D02*
X113764564Y-83340000D01*
X112310436Y-85160000D02*
X113764564Y-85160000D01*
%TO.C,R23*%
X112310436Y-67090000D02*
X113764564Y-67090000D01*
X112310436Y-68910000D02*
X113764564Y-68910000D01*
%TD*%
%LPC*%
D11*
%TO.C,Vin*%
X192250000Y-127600000D03*
X192250000Y-119400000D03*
D12*
X192250000Y-125500000D03*
D13*
X192250000Y-123500000D03*
X192250000Y-121500000D03*
%TD*%
D14*
%TO.C,C9*%
X140342621Y-79500000D03*
D15*
X140342621Y-81500000D03*
%TD*%
D16*
%TO.C,J10*%
X103250000Y-62900000D03*
D17*
X103250000Y-65440000D03*
X103250000Y-67980000D03*
X103250000Y-70520000D03*
%TD*%
D14*
%TO.C,C35*%
X136025000Y-97544888D03*
D15*
X136025000Y-99544888D03*
%TD*%
D14*
%TO.C,C25*%
X176275000Y-108250000D03*
D15*
X176275000Y-110250000D03*
%TD*%
D14*
%TO.C,C8*%
X121717621Y-123919888D03*
D15*
X124217621Y-123919888D03*
%TD*%
D18*
%TO.C,J2*%
X171190000Y-59027500D03*
D19*
X166110000Y-59027500D03*
X161030000Y-59027500D03*
X155950000Y-59027500D03*
X150870000Y-59027500D03*
X145790000Y-59027500D03*
X140710000Y-59027500D03*
X135630000Y-59027500D03*
X130550000Y-59027500D03*
X125470000Y-59027500D03*
X120390000Y-59027500D03*
X115310000Y-59027500D03*
%TD*%
D16*
%TO.C,J11*%
X103250000Y-75150000D03*
D17*
X103250000Y-77690000D03*
X103250000Y-80230000D03*
X103250000Y-82770000D03*
%TD*%
D14*
%TO.C,C17*%
X180275000Y-74750000D03*
D15*
X180275000Y-76750000D03*
%TD*%
D14*
%TO.C,C3*%
X141525000Y-108294888D03*
D15*
X141525000Y-110294888D03*
%TD*%
D14*
%TO.C,C22*%
X161525000Y-89750000D03*
D15*
X164025000Y-89750000D03*
%TD*%
D16*
%TO.C,J8*%
X103250000Y-131750000D03*
D17*
X103250000Y-129210000D03*
X103250000Y-126670000D03*
X103250000Y-124130000D03*
%TD*%
D14*
%TO.C,C40*%
X153775000Y-95794888D03*
D15*
X153775000Y-97794888D03*
%TD*%
D20*
%TO.C,SW4*%
X167175000Y-123500000D03*
X175375000Y-123500000D03*
D21*
X169275000Y-123500000D03*
D22*
X171275000Y-123500000D03*
X173275000Y-123500000D03*
%TD*%
D16*
%TO.C,J12*%
X103250000Y-87400000D03*
D17*
X103250000Y-89940000D03*
X103250000Y-92480000D03*
X103250000Y-95020000D03*
%TD*%
D20*
%TO.C,5V_SW*%
X183125000Y-67202500D03*
X174925000Y-67202500D03*
D21*
X181025000Y-67202500D03*
D22*
X179025000Y-67202500D03*
X177025000Y-67202500D03*
%TD*%
D20*
%TO.C,-5V_SW*%
X134075000Y-67500000D03*
X142275000Y-67500000D03*
D21*
X136175000Y-67500000D03*
D22*
X138175000Y-67500000D03*
X140175000Y-67500000D03*
%TD*%
D20*
%TO.C,SW6*%
X183125000Y-85000000D03*
X174925000Y-85000000D03*
D21*
X181025000Y-85000000D03*
D22*
X179025000Y-85000000D03*
X177025000Y-85000000D03*
%TD*%
D23*
%TO.C,12V*%
X110190000Y-136472500D03*
D19*
X115270000Y-136472500D03*
X120350000Y-136472500D03*
X125430000Y-136472500D03*
X130510000Y-136472500D03*
X135590000Y-136472500D03*
X140670000Y-136472500D03*
X145750000Y-136472500D03*
X150830000Y-136472500D03*
X155910000Y-136472500D03*
X160990000Y-136472500D03*
X166070000Y-136472500D03*
%TD*%
D11*
%TO.C,SW5*%
X192250000Y-113850000D03*
X192250000Y-105650000D03*
D12*
X192250000Y-111750000D03*
D13*
X192250000Y-109750000D03*
X192250000Y-107750000D03*
%TD*%
D14*
%TO.C,C30*%
X151775000Y-123500000D03*
D15*
X154275000Y-123500000D03*
%TD*%
D24*
%TO.C,P1*%
X194390000Y-55605000D03*
X188610000Y-55605000D03*
D25*
X195820000Y-56105000D03*
D26*
X195820000Y-51925000D03*
D25*
X187180000Y-56105000D03*
D26*
X187180000Y-51925000D03*
%TD*%
D14*
%TO.C,C41*%
X159775000Y-95794888D03*
D15*
X159775000Y-97794888D03*
%TD*%
D16*
%TO.C,J14*%
X103250000Y-119500000D03*
D17*
X103250000Y-116960000D03*
X103250000Y-114420000D03*
X103250000Y-111880000D03*
%TD*%
D27*
%TO.C,J3*%
X188500000Y-99250000D03*
D28*
X188500000Y-94170000D03*
X188500000Y-89090000D03*
X188500000Y-84010000D03*
X188500000Y-78930000D03*
X188500000Y-73850000D03*
X188500000Y-68770000D03*
X188500000Y-63690000D03*
%TD*%
D16*
%TO.C,J9*%
X103250000Y-58250000D03*
D17*
X103250000Y-55710000D03*
X103250000Y-53170000D03*
X103250000Y-50630000D03*
%TD*%
D14*
%TO.C,C14*%
X122092621Y-95250000D03*
D15*
X124592621Y-95250000D03*
%TD*%
D23*
%TO.C,J5*%
X175390000Y-136472500D03*
D19*
X180470000Y-136472500D03*
%TD*%
D23*
%TO.C,J6*%
X189790000Y-136472500D03*
D19*
X194870000Y-136472500D03*
%TD*%
D16*
%TO.C,J7*%
X103250000Y-144000000D03*
D17*
X103250000Y-141460000D03*
X103250000Y-138920000D03*
X103250000Y-136380000D03*
%TD*%
D20*
%TO.C,SW1*%
X134075000Y-123500000D03*
X142275000Y-123500000D03*
D21*
X136175000Y-123500000D03*
D22*
X138175000Y-123500000D03*
X140175000Y-123500000D03*
%TD*%
D16*
%TO.C,J13*%
X103250000Y-99650000D03*
D17*
X103250000Y-102190000D03*
X103250000Y-104730000D03*
X103250000Y-107270000D03*
%TD*%
D29*
%TO.C,R3*%
X114500000Y-80250000D03*
X111575000Y-80250000D03*
%TD*%
%TO.C,R16*%
X114500000Y-76250000D03*
X111575000Y-76250000D03*
%TD*%
%TO.C,R12*%
X114500000Y-72000000D03*
X111575000Y-72000000D03*
%TD*%
D30*
%TO.C,R8*%
X111575000Y-84250000D03*
X114500000Y-84250000D03*
%TD*%
%TO.C,R23*%
X111575000Y-68000000D03*
X114500000Y-68000000D03*
%TD*%
%LPD*%
M02*
