M48
; DRILL file {KiCad 7.0.2} date Wed Jul  5 23:24:57 2023
; FORMAT={-:-/ absolute / metric / decimal}
; #@! TF.CreationDate,2023-07-05T23:24:57+08:00
; #@! TF.GenerationSoftware,Kicad,Pcbnew,7.0.2
; #@! TF.FileFunction,MixedPlating,1,2
FMAT,2
METRIC
; #@! TA.AperFunction,Plated,PTH,ViaDrill
T1C0.300
; #@! TA.AperFunction,Plated,PTH,ComponentDrill
T2C0.300
; #@! TA.AperFunction,Plated,PTH,ViaDrill
T3C0.500
; #@! TA.AperFunction,Plated,PTH,ComponentDrill
T4C0.600
; #@! TA.AperFunction,Plated,PTH,ComponentDrill
T5C0.800
; #@! TA.AperFunction,Plated,PTH,ComponentDrill
T6C1.000
; #@! TA.AperFunction,Plated,PTH,ComponentDrill
T7C1.400
; #@! TA.AperFunction,Plated,PTH,ComponentDrill
T8C1.500
; #@! TA.AperFunction,NonPlated,NPTH,ComponentDrill
T9C0.650
%
G90
G05
T1
X108.75Y-76.25
X109.25Y-72.0
X109.5Y-80.25
X116.0Y-68.0
X116.5Y-84.25
X142.0Y-117.75
X145.75Y-88.75
X145.75Y-95.25
X188.0Y-58.0
X195.75Y-58.5
T2
X124.593Y-78.5
X124.593Y-79.7
X124.593Y-81.0
X124.593Y-82.1
X125.75Y-107.255
X125.75Y-108.455
X125.75Y-109.755
X125.75Y-110.855
X125.793Y-78.5
X125.793Y-79.7
X125.793Y-81.0
X125.793Y-82.1
X126.95Y-107.255
X126.95Y-108.455
X126.95Y-109.755
X126.95Y-110.855
X161.025Y-107.1
X161.025Y-108.3
X161.025Y-109.6
X161.025Y-110.7
X162.225Y-107.1
X162.225Y-108.3
X162.225Y-109.6
X162.225Y-110.7
X165.075Y-73.75
X165.075Y-74.95
X165.075Y-76.25
X165.075Y-77.35
X166.275Y-73.75
X166.275Y-74.95
X166.275Y-76.25
X166.275Y-77.35
T3
X109.25Y-93.0
X112.25Y-118.0
X134.75Y-103.75
X141.0Y-103.75
X161.5Y-116.25
X171.5Y-120.5
X172.0Y-102.25
X179.25Y-117.25
X183.5Y-96.5
T5
X121.718Y-123.92
X122.093Y-95.25
X124.218Y-123.92
X124.593Y-95.25
X136.025Y-97.545
X136.025Y-99.545
X136.175Y-67.5
X136.175Y-123.5
X138.175Y-67.5
X138.175Y-123.5
X140.175Y-67.5
X140.175Y-123.5
X140.343Y-79.5
X140.343Y-81.5
X141.525Y-108.295
X141.525Y-110.295
X151.775Y-123.5
X153.775Y-95.795
X153.775Y-97.795
X154.275Y-123.5
X159.775Y-95.795
X159.775Y-97.795
X161.525Y-89.75
X164.025Y-89.75
X169.275Y-123.5
X171.275Y-123.5
X173.275Y-123.5
X176.275Y-108.25
X176.275Y-110.25
X177.025Y-67.203
X177.025Y-85.0
X179.025Y-67.203
X179.025Y-85.0
X180.275Y-74.75
X180.275Y-76.75
X181.025Y-67.203
X181.025Y-85.0
X192.25Y-107.75
X192.25Y-109.75
X192.25Y-111.75
X192.25Y-121.5
X192.25Y-123.5
X192.25Y-125.5
T6
X103.25Y-50.63
X103.25Y-53.17
X103.25Y-55.71
X103.25Y-58.25
X103.25Y-62.9
X103.25Y-65.44
X103.25Y-67.98
X103.25Y-70.52
X103.25Y-75.15
X103.25Y-77.69
X103.25Y-80.23
X103.25Y-82.77
X103.25Y-87.4
X103.25Y-89.94
X103.25Y-92.48
X103.25Y-95.02
X103.25Y-99.65
X103.25Y-102.19
X103.25Y-104.73
X103.25Y-107.27
X103.25Y-111.88
X103.25Y-114.42
X103.25Y-116.96
X103.25Y-119.5
X103.25Y-124.13
X103.25Y-126.67
X103.25Y-129.21
X103.25Y-131.75
X103.25Y-136.38
X103.25Y-138.92
X103.25Y-141.46
X103.25Y-144.0
T7
X110.19Y-136.472
X115.27Y-136.472
X115.31Y-59.027
X120.35Y-136.472
X120.39Y-59.027
X125.43Y-136.472
X125.47Y-59.027
X130.51Y-136.472
X130.55Y-59.027
X135.59Y-136.472
X135.63Y-59.027
X140.67Y-136.472
X140.71Y-59.027
X145.75Y-136.472
X145.79Y-59.027
X150.83Y-136.472
X150.87Y-59.027
X155.91Y-136.472
X155.95Y-59.027
X160.99Y-136.472
X161.03Y-59.027
X166.07Y-136.472
X166.11Y-59.027
X171.19Y-59.027
X175.39Y-136.472
X180.47Y-136.472
X188.5Y-63.69
X188.5Y-68.77
X188.5Y-73.85
X188.5Y-78.93
X188.5Y-84.01
X188.5Y-89.09
X188.5Y-94.17
X188.5Y-99.25
X189.79Y-136.472
X194.87Y-136.472
T8
X134.075Y-67.5
X134.075Y-123.5
X142.275Y-67.5
X142.275Y-123.5
X167.175Y-123.5
X174.925Y-67.203
X174.925Y-85.0
X175.375Y-123.5
X183.125Y-67.203
X183.125Y-85.0
X192.25Y-105.65
X192.25Y-113.85
X192.25Y-119.4
X192.25Y-127.6
T9
X188.61Y-55.605
X194.39Y-55.605
T4
G00X187.18Y-52.325
M15
G01X187.18Y-51.525
M16
G05
G00X187.18Y-56.655
M15
G01X187.18Y-55.555
M16
G05
G00X195.82Y-52.325
M15
G01X195.82Y-51.525
M16
G05
G00X195.82Y-56.655
M15
G01X195.82Y-55.555
M16
G05
T0
M30
